PathFileType	4	(X/Y/Z)	Kaydara	
DataRate	CameraRate	NumFrames	NumMarkers	Units	OrigDataRate	OrigDataStartFrame	OrigNumFrames	
240.00	240.00	4	72	mm	240.00	225	359	
Frame#	Time	Hips			RightUpLeg			RightLeg			RightFoot			RightFoot_End			LeftUpLeg			LeftLeg			LeftFoot			LeftFoot_End			Spine			Spine1			Spine2			Spine3			Neck			Head			Head_End			RightShoulder			RightArm			RightForeArm			RightHand			RightHandThumb1			RightHandThumb2			RightHandThumb3			RightHandThumb3_End			RightInHandIndex			RightHandIndex1			RightHandIndex2			RightHandIndex3			RightHandIndex3_End			RightInHandMiddle			RightHandMiddle1			RightHandMiddle2			RightHandMiddle3			RightHandMiddle3_End			RightInHandRing			RightHandRing1			RightHandRing2			RightHandRing3			RightHandRing3_End			RightInHandPinky			RightHandPinky1			RightHandPinky2			RightHandPinky3			RightHandPinky3_End			LeftShoulder			LeftArm			LeftForeArm			LeftHand			LeftHandThumb1			LeftHandThumb2			LeftHandThumb3			LeftHandThumb3_End			LeftInHandIndex			LeftHandIndex1			LeftHandIndex2			LeftHandIndex3			LeftHandIndex3_End			LeftInHandMiddle			LeftHandMiddle1			LeftHandMiddle2			LeftHandMiddle3			LeftHandMiddle3_End			LeftInHandRing			LeftHandRing1			LeftHandRing2			LeftHandRing3			LeftHandRing3_End			LeftInHandPinky			LeftHandPinky1			LeftHandPinky2			LeftHandPinky3			LeftHandPinky3_End			
		X1	Y1	Z1	X2	Y2	Z2	X3	Y3	Z3	X4	Y4	Z4	X5	Y5	Z5	X6	Y6	Z6	X7	Y7	Z7	X8	Y8	Z8	X9	Y9	Z9	X10	Y10	Z10	X11	Y11	Z11	X12	Y12	Z12	X13	Y13	Z13	X14	Y14	Z14	X15	Y15	Z15	X16	Y16	Z16	X17	Y17	Z17	X18	Y18	Z18	X19	Y19	Z19	X20	Y20	Z20	X21	Y21	Z21	X22	Y22	Z22	X23	Y23	Z23	X24	Y24	Z24	X25	Y25	Z25	X26	Y26	Z26	X27	Y27	Z27	X28	Y28	Z28	X29	Y29	Z29	X30	Y30	Z30	X31	Y31	Z31	X32	Y32	Z32	X33	Y33	Z33	X34	Y34	Z34	X35	Y35	Z35	X36	Y36	Z36	X37	Y37	Z37	X38	Y38	Z38	X39	Y39	Z39	X40	Y40	Z40	X41	Y41	Z41	X42	Y42	Z42	X43	Y43	Z43	X44	Y44	Z44	X45	Y45	Z45	X46	Y46	Z46	X47	Y47	Z47	X48	Y48	Z48	X49	Y49	Z49	X50	Y50	Z50	X51	Y51	Z51	X52	Y52	Z52	X53	Y53	Z53	X54	Y54	Z54	X55	Y55	Z55	X56	Y56	Z56	X57	Y57	Z57	X58	Y58	Z58	X59	Y59	Z59	X60	Y60	Z60	X61	Y61	Z61	X62	Y62	Z62	X63	Y63	Z63	X64	Y64	Z64	X65	Y65	Z65	X66	Y66	Z66	X67	Y67	Z67	X68	Y68	Z68	X69	Y69	Z69	X70	Y70	Z70	X71	Y71	Z71	X72	Y72	Z72	

225	0.933	6198.941	914.58397	126.699	6252.5524539894595	896.0542428701765	52.52741365080381	6157.476658248761	500.7824699892844	-48.4502969057938	6139.304510825001	109.5560979464698	-125.10441816565387	5987.968738340924	33.3529575924949	-36.619875625206795	6159.22055644476	906.5857239157535	211.91835748849314	6065.826744962723	504.57173468608977	283.07966506898066	5990.7747833412195	80.05739191994701	370.6794474760677	5869.408658704887	-2.281375584615622	248.08575890990113	6134.227046799558	1033.7139497631947	80.7326620824805	6074.781825323758	1092.3979667654903	31.00707933031154	6010.031755636315	1146.5935686179646	-24.844394525500263	5944.18984799918	1186.8383956712894	-83.93756002263721	5872.557137613214	1230.1452878544076	-145.38732150732906	5805.538527839815	1269.8750828539403	-198.71688330923703	5665.493835474898	1346.201268172357	-207.5429749513643	5916.36440110647	1214.3615549487267	-149.38967070542878	5972.925262246292	1185.6421681392828	-260.41940088028696	6005.017636490163	926.2105289966217	-260.6318666239404	5984.015296549824	798.4754633178158	-464.4934637483693	5991.769649663618	810.6528995506992	-500.61798661393203	5970.692024431829	815.574268084322	-533.254246815217	5955.330573973582	815.8337868549288	-554.9792297757997	5941.9401180907835	813.3402321342375	-572.2324370627481	5992.884776697983	800.2432512404134	-500.9945783989115	5991.553638751868	791.9382836787547	-550.2119910857349	5975.39310059418	787.0748061615532	-580.950950984076	5957.643668436328	787.7787840536937	-595.1317394661564	5937.7569413382935	790.875853170814	-603.5439980363875	5990.349377748536	791.9601576672628	-496.38685361241323	5987.683974725712	779.379150189393	-541.9007192457893	5969.7003649466815	773.007271232662	-574.6710293541612	5948.118712069477	773.3456181184458	-591.40914798093	5926.277538467248	776.485968228082	-600.4335727396641	5988.742047440529	786.288420327631	-491.9144370204193	5985.396771540734	769.9972134392881	-528.9353619096619	5969.367761272879	763.3752509935853	-556.6368548053764	5948.362306977892	763.1343406331072	-572.3247251491134	5927.73688772208	765.8182467979362	-580.5932118007004	5985.746756857887	780.2414502673045	-485.0274684405981	5981.334663916621	761.4623983702335	-514.8834489867562	5967.959756999228	754.5645234162276	-535.5604278919208	5952.37733096459	753.6171260352456	-546.2750335966495	5933.9563776339055	755.5505221360702	-553.1804878810435	5876.272648610297	1217.3822596086247	-99.37745379535194	5824.957811767329	1168.2548270708578	7.48963588618769	5922.62187864239	989.1407321636303	-160.63427110952864	5980.290014450132	851.7119427710417	-344.21042002451503	6011.788615128149	856.6045625937941	-368.6300359340877	6051.372294055721	842.6615910352302	-376.1494618068168	6077.074463873528	830.1942105542784	-381.0069502857877	6096.90672827398	817.4417385816587	-384.7321733254936	6007.07415563212	848.1984211631835	-371.5542726139614	6045.091999490773	828.1403361575939	-403.0911650112298	6076.4779028257935	808.6810182256278	-414.12748944123433	6097.264437740603	797.3663933144578	-412.86172202332244	6115.3287505430635	788.5295870318529	-406.3321013471836	6000.915678502035	841.1351698855864	-368.9071049330912	6034.664613912159	817.7521702122749	-398.23849508594776	6067.983118267474	795.6443951781603	-409.81611145816	6092.615146959474	781.5744145022064	-408.06574332346975	6112.16387946834	771.7015078023348	-400.81261497751973	5995.5398890712495	836.6906693251466	-366.3466871244048	6020.959146904282	811.9756920520963	-390.746074229684	6048.9967925186575	791.8498474240149	-400.3141833893857	6072.223747217707	777.8233183242896	-398.3480617704612	6090.352100421951	768.3247273832163	-391.3966589874706	5988.673256398055	831.8826812187274	-361.5793899552874	6007.58322672847	806.3572102312942	-381.4139995727632	6028.359663943407	789.0122781601598	-388.1526209231327	6044.491216692944	778.1868081632304	-386.271955727541	6060.083660375344	769.4304815324278	-379.85713776060646
226	0.938	6198.941	914.58397	126.699	6252.463804673777	895.9395010089205	52.48934651240456	6157.381489606593	500.67308005273895	-48.50683865327598	6139.291070872879	109.44756357922043	-125.19303030788326	5987.958767957349	33.24013135330806	-36.70626148851758	6159.297534897842	906.6986007729874	211.9663219602577	6065.865872096626	504.6848360891287	283.08290753039023	5990.712665613552	80.15909708529644	370.5468275980848	5869.35487971352	-2.1876320304127326	247.9501683736527	6134.283030737651	1033.7277019289086	80.69059842067044	6074.859254407344	1092.3767759473162	30.902531241389667	6010.12576118906	1146.5318707084916	-25.00369393358415	5944.2856453113245	1186.7395521770031	-84.12243792661877	5872.655444805015	1230.0076115955824	-145.60071990281347	5805.643786720025	1269.7118457258462	-198.9568128348811	5665.692245532693	1346.1770856276005	-207.91037379052918	5916.362966653855	1214.0022338018364	-149.620233590304	5972.260453962207	1184.0695477008999	-260.38444012804035	6002.045745039949	924.6220200496243	-258.436873700929	5979.821088413881	794.0251586158331	-458.3266158142843	5987.074328369113	805.4046733753883	-494.26486228620297	5965.852669553447	809.8747588184913	-526.3225164094723	5950.440457568056	809.8620330836785	-547.5941791215474	5937.050067211255	807.177474656164	-564.4263751265325	5988.293113472208	795.037462203843	-494.46248858918756	5986.6594356756505	785.8854499906103	-542.8537583809543	5970.4377400235035	780.6195610122077	-572.9178112846868	5952.715399898225	781.2075222484882	-586.7292678899745	5932.89501802347	784.2990611546019	-594.8697309148297	5985.910095307581	786.9070536771083	-489.74174316571543	5983.031984204698	773.5823983163928	-534.3887094480997	5965.002913682946	766.7945360596566	-566.4102037775752	5943.464155402644	767.0040117549563	-582.6968070606193	5921.700538593796	770.1437063768292	-591.420955463329	5984.416889211528	781.363010415652	-485.2110809514021	5980.976386182304	764.5109482171387	-521.4060556069027	5964.929845638788	757.551243692562	-548.4436072121758	5943.977499649159	757.1992136172199	-563.6899699044831	5923.4305634589655	759.8887525901267	-571.6732848585794	5981.571769702256	775.5018798646579	-478.27680631430906	5977.160612253515	756.3166939250353	-507.3475497334048	5963.806560679987	749.1895651983392	-527.4788835137713	5948.279750950194	748.1810453293217	-537.8646864409665	5929.938034832223	750.1309003255584	-544.5136315485488	5876.474130827933	1217.4988643886525	-99.55677509514351	5825.526569252035	1169.5363925075576	7.744306188440518	5920.99647987574	988.4789116799863	-158.8301245094235	5977.908295754557	848.0778570291869	-339.9067632056401	6008.881128285226	852.1920221609232	-364.5871072539574	6048.233322022298	837.8881555848909	-372.3472678527977	6073.827961328144	825.2034017299507	-377.3027950114116	6093.616500407458	812.2987615403317	-381.05019993161363	6004.290349157722	843.7913413631558	-367.26754616999915	6041.981539380303	822.8720130650145	-398.6509113929844	6073.249596146813	803.0528313454034	-409.6775565062446	6094.004578820664	791.6850994698423	-408.5277190004523	6112.070912533459	782.9194252575036	-402.17631079166506	5998.294434365877	836.8617981472904	-364.4410149726051	6031.812660472984	812.7110220568925	-393.52561382243744	6065.025216795684	790.2312992099152	-405.06962084156237	6089.630046162075	776.1071976404086	-403.4480585335103	6109.186272961497	766.3169598842833	-396.38455063052817	5993.041005201897	832.5313587936807	-361.7563224571051	6018.357303255076	807.2203475938178	-385.8223486981397	6046.326123438596	786.7927416213432	-395.3380123832394	6069.539332430548	772.7259205606952	-393.48383973049897	6087.680651034456	763.3107042097705	-386.7049020477521	5986.331367512331	827.898540676229	-356.8618368554197	6005.240814373705	801.9261148337949	-376.3072893151484	6025.9992865732065	784.3771533145264	-382.96926003629375	6042.138782795549	773.5404873451047	-381.1534874583175	6057.75305347598	764.8684874475442	-374.8817980055737
227	0.942	6198.941	914.58397	126.699	6252.3737898298505	895.8225288945648	52.451153302518534	6157.2838871018375	500.56115676870905	-48.56132258768565	6139.2788252573855	109.33633743804906	-125.27924926463336	5987.950038307114	33.124246245357625	-36.79049463848401	6159.375831311151	906.8138799871507	212.01484029614514	6065.90730802981	504.80032684948657	283.0879029822471	5990.651118204606	80.26318174654078	370.414217650615	5869.30179748388	-2.091655647889098	247.81456268830442	6134.339288052843	1033.7407896515358	80.64663786203567	6074.936098141717	1092.3529025206044	30.79494246171064	6010.218339898829	1146.4654083944338	-25.16690782018884	5944.379510643238	1186.6344965930723	-84.31158946259342	5872.7513362192985	1229.8622542929322	-145.81879901570497	5805.7463239773715	1269.5397690095774	-199.20185748793307	5665.890106033964	1346.1463591048507	-208.28683227797902	5916.357144600543	1213.6328601003754	-149.85444847125927	5971.579319909287	1182.476160193992	-260.3419933678293	5999.055383315565	923.0412457053907	-256.2030434161704	5975.605908085389	789.5846805818223	-452.0527159276644	5982.352026101164	800.1662856572888	-487.78434476615155	5960.994995720103	804.1851790971873	-519.2466271516954	5945.538990851139	803.9001794226034	-540.0545604154003	5932.155276552719	801.024513304925	-556.4581508195491	5983.6759973799935	789.8411385265753	-487.8053957183362	5981.741937986694	779.8413637743906	-535.3490123024806	5965.4674100028715	774.1727842104905	-564.7247025261156	5947.780152680386	774.6448076227209	-578.1599300775698	5928.0346288029605	777.7310517907644	-586.0238791236063	5981.4481560932945	781.8631979245947	-482.97589470151433	5978.360952466393	767.7940769717327	-526.7372876515067	5960.29587606997	760.5899007918381	-557.9959177993253	5938.809830735485	760.6705879048027	-573.8229889955815	5917.133171666472	763.8098786148942	-582.2418462269553	5980.0709318408835	776.4467106753856	-478.3905376591891	5976.5398709639585	759.0329317431377	-513.7458755497264	5960.484414686672	751.7351716676019	-540.1079192269177	5939.594846011493	751.2720881250249	-554.9054015439588	5919.135326182097	753.967490084713	-562.599000237835	5977.378556081411	770.7713048453801	-471.4137621808047	5972.97399300495	751.1791137448033	-499.6896325722871	5959.648258010272	743.8224445382242	-519.2671766238093	5944.184389557283	742.7528332384884	-529.3193396671406	5925.929980843427	744.7193410958246	-535.7080609685707	5876.6755740605095	1217.6112054897944	-99.74160475778497	5826.102774939174	1170.8331143066007	7.990482580055025	5919.3653646755865	987.829135044232	-156.9854157083452	5975.511697272311	844.4519221155616	-335.5328311620133	6005.942967709804	847.7876207518552	-360.4634923261733	6045.0498764268	833.1240284205019	-368.46705419621105	6070.528903128357	820.2227176580952	-373.52337665097986	6090.268286453137	807.1665917771048	-377.2960311347237	6001.479953625056	839.3922868501255	-362.9011955221988	6038.832020767737	817.6120534631749	-394.12531334142506	6069.9732549454475	797.4338869928525	-405.14474944435136	6090.69066393773	786.0139199375186	-404.1156296562567	6108.753737113528	777.3203187900397	-397.9485903660571	5995.65117720402	832.5964764760542	-359.8982533888758	6028.929006949362	807.6782670621667	-388.73207681140923	6062.026464488053	784.8275585830459	-400.2455862708068	6086.59713885614	770.6503893234825	-398.75880583160637	6106.155231292248	760.9438508260891	-391.89175174154354	5990.523670013804	828.3801007525283	-357.0914573769278	6015.731449401681	802.4733463246088	-380.8222591779353	6043.624141575501	781.7448202202311	-390.2886219876386	6066.81725309807	767.6387244663683	-388.5523922771447	6084.966414175483	758.3078521077684	-381.9524535965189	5983.975410598199	823.922496461818	-352.0729301529087	6002.88196903242	797.5033878698692	-371.12925046069665	6023.6177030973195	779.7510733080439	-377.71777171946684	6039.7610295671975	768.9039547173568	-375.9715942232504	6055.392888303643	760.3171410638632	-369.849011427602
228	0.946	6198.941	914.58397	126.699	6252.282433173199	895.703346285791	52.4128571360216	6157.183840655457	500.44672181912006	-48.613699434649334	6139.2677942363625	109.22243838106216	-125.3630008187113	5987.9425693403855	33.005318822070244	-36.87250341319072	6159.455425021614	906.93154478957	212.06389193980243	6065.951052884413	504.91819064000674	283.0946586754027	5990.590172320152	80.36963610525844	370.2816717402706	5869.249441860495	-1.9934544742547484	247.6789962139586	6134.39580409776	1033.7531986431866	80.6007678353742	6075.012321976798	1092.3263273664568	30.684319117632437	6010.309439750703	1146.394162985362	-25.334009355974565	5944.47138671108	1186.523224110676	-84.50497301708037	5872.844749958328	1229.7092261754017	-146.04150183269306	5805.846073915579	1269.3588738861636	-199.45194798124166	5666.087348794734	1346.1090834361244	-208.67230790076644	5916.346884141688	1213.2535125326942	-150.09222644648986	5970.881927703975	1180.862574001053	-260.2918891656391	5996.047798166792	921.469392395451	-253.93076561221233	5971.371646200205	785.1573496776604	-445.67320960211094	5977.604828051912	794.9416429053217	-481.1775072891005	5956.121385618583	798.5097667847684	-512.0276349480354	5940.628750361624	797.9526627139252	-532.3614847571034	5927.258472862155	794.885923616647	-548.3289787946678	5979.035471919763	784.6581519732497	-481.02456095133175	5976.803424424048	773.8105114557843	-527.6990641775291	5960.48461591723	767.7392542360474	-556.3730725888372	5942.840600221403	768.0955039360925	-569.4252559148748	5923.178604525447	771.1766944748102	-577.0080384753311	5976.9655621707325	776.8323478997468	-476.09075541097366	5973.67308859323	762.0184813948913	-518.9480505665213	5955.581702354459	754.3979621161076	-549.4299416467315	5934.158388113366	754.3500378681781	-564.7895747112995	5912.57825853081	757.4891783867503	-572.8982038095353	5975.706141438616	771.5431834690935	-471.4543838999449	5972.089344325306	753.5672295136898	-505.9566432612743	5956.033790449657	745.931344673482	-531.6317884331336	5935.216857311521	745.3573553568552	-545.9731376103807	5914.853846070842	748.0588478461855	-553.3725549300078	5973.169039202057	766.0532499435707	-464.44006526191663	5968.776840439966	746.0534720036953	-491.91174328036	5955.487035323648	738.4671405978273	-510.9275316444705	5940.0935658280905	737.3365135266022	-520.6413234152224	5921.934672445566	739.3198573555001	-526.7661871448679	5876.876907300206	1217.7192120566679	-99.93192828223178	5826.686303174507	1172.1446616560045	8.227844912540164	5917.7294145486385	987.1921321179952	-155.10026786057563	5973.101097170219	840.8367001265219	-331.0897254233321	6002.974977451633	843.3944581089689	-356.2598814014221	6041.822598098414	828.3725855979072	-364.5094194020281	6067.17778468311	815.2557028051258	-369.66929645575976	6086.862457255236	802.048893611626	-373.4703273455698	5998.6438112944	835.0043485983967	-358.45609532375096	6035.644150259273	812.3641463155186	-389.5152165022501	6066.649409635848	791.8281407744441	-400.52998119813805	6087.323082773822	780.3568671955668	-399.6264048426017	6105.377476440244	771.7362537235316	-393.6499196494752	5992.986739510244	828.3422026122355	-355.2798809708078	6026.014348262745	802.6574358414639	-383.8590172047333	6058.987363054705	779.4369804431028	-395.3452390955839	6083.516756507304	765.2078583863498	-393.999274186895	6103.070935227051	755.586017227641	-387.3355444893849	5987.988713340442	824.239813292573	-352.35328445878633	6013.082291852223	797.7380190845906	-375.74717615211665	6040.89138427015	776.7096394838275	-385.16749347711817	6064.057881941089	762.5653375221781	-383.555269647173	6082.209620678428	753.3197443220654	-377.14090519923883	5981.606210223946	819.9573458826355	-347.2140187703765	6000.507401480592	793.092135914356	-365.88148994614363	6021.2154881695205	775.137299071863	-372.3998901725104	6037.358411268271	764.2804959179633	-370.7280791692333	6053.003493245943	755.779690410634	-364.760628514882
